<?xml version="1.0" encoding="utf-8"?>
<!-- Generator: Adobe Illustrator 24.1.1, SVG Export Plug-In . SVG Version: 6.00 Build 0)  -->
<svg version="1.1" id="Layer_1" xmlns="http://www.w3.org/2000/svg" xmlns:xlink="http://www.w3.org/1999/xlink" x="0px" y="0px"
	 viewBox="0 0 16 16" style="enable-background:new 0 0 16 16;" xml:space="preserve">
<style type="text/css">
	.st0{fill:#25BAA4;}
	.st1{fill:#2F877E;}
	.st2{fill:#2B5D5E;}
	.st3{fill:#213A42;}
	.st4{fill:#141628;}
</style>
<g>
	<g>
		<path class="st0" d="M5.54,0.37h1.84v9.17c0,0.84-0.13,1.59-0.38,2.23c-0.25,0.65-0.61,1.14-1.07,1.5
			c-0.46,0.35-0.98,0.53-1.55,0.53c-0.95,0-1.68-0.36-2.21-1.07c-0.53-0.71-0.79-1.72-0.79-3.03h1.86c0,0.65,0.09,1.13,0.28,1.44
			c0.18,0.31,0.48,0.46,0.87,0.46c0.35,0,0.63-0.18,0.84-0.54c0.21-0.36,0.31-0.87,0.31-1.53V0.37z"/>
		<path class="st0" d="M15.99,9.2c-0.07,1.42-0.42,2.55-1.07,3.37c-0.64,0.82-1.49,1.23-2.53,1.23c-1.15,0-2.05-0.57-2.71-1.71
			C9.02,10.94,8.7,9.37,8.7,7.37V6.56c0-1.27,0.15-2.4,0.45-3.37s0.74-1.71,1.3-2.23c0.56-0.52,1.22-0.78,1.96-0.78
			c1.03,0,1.86,0.41,2.49,1.23s1,1.97,1.09,3.45h-1.84C14.11,4.01,13.95,3.39,13.67,3c-0.28-0.39-0.7-0.58-1.26-0.58
			c-0.61,0-1.08,0.33-1.38,0.98s-0.46,1.66-0.47,3.03v1c0,1.43,0.15,2.48,0.44,3.14c0.29,0.66,0.76,0.99,1.39,0.99
			c0.57,0,1-0.19,1.27-0.58c0.28-0.39,0.44-0.98,0.48-1.79H15.99z"/>
	</g>
	<g>
		<path class="st1" d="M5.24,0.86h1.84v9.17c0,0.84-0.13,1.59-0.38,2.23c-0.25,0.65-0.61,1.14-1.07,1.5
			c-0.46,0.35-0.98,0.53-1.55,0.53c-0.95,0-1.68-0.36-2.21-1.07c-0.53-0.71-0.79-1.72-0.79-3.03h1.86c0,0.65,0.09,1.13,0.28,1.44
			c0.18,0.31,0.48,0.46,0.87,0.46c0.35,0,0.63-0.18,0.84-0.54c0.21-0.36,0.31-0.87,0.31-1.53V0.86z"/>
		<path class="st1" d="M15.68,9.7c-0.07,1.42-0.42,2.55-1.07,3.37c-0.64,0.82-1.49,1.23-2.53,1.23c-1.15,0-2.05-0.57-2.71-1.71
			c-0.66-1.14-0.99-2.71-0.99-4.71V7.06c0-1.27,0.15-2.4,0.45-3.37s0.74-1.71,1.3-2.23c0.56-0.52,1.22-0.78,1.96-0.78
			c1.03,0,1.86,0.41,2.49,1.23s1,1.97,1.09,3.45h-1.84C13.8,4.5,13.65,3.88,13.37,3.5c-0.28-0.39-0.7-0.58-1.26-0.58
			c-0.61,0-1.08,0.33-1.38,0.98s-0.46,1.66-0.47,3.03v1c0,1.43,0.15,2.48,0.44,3.14c0.29,0.66,0.76,0.99,1.39,0.99
			c0.57,0,1-0.19,1.27-0.58c0.28-0.39,0.44-0.98,0.48-1.79H15.68z"/>
	</g>
	<g>
		<path class="st2" d="M4.93,1.36h1.84v9.17c0,0.84-0.13,1.59-0.38,2.23c-0.25,0.65-0.61,1.14-1.07,1.5
			c-0.46,0.35-0.98,0.53-1.55,0.53c-0.95,0-1.68-0.36-2.21-1.07C1.04,13,0.77,12,0.77,10.69h1.86c0,0.65,0.09,1.13,0.28,1.44
			c0.18,0.31,0.48,0.46,0.87,0.46c0.35,0,0.63-0.18,0.84-0.54c0.21-0.36,0.31-0.87,0.31-1.53V1.36z"/>
		<path class="st2" d="M15.38,10.19c-0.07,1.42-0.42,2.55-1.07,3.37c-0.64,0.82-1.49,1.23-2.53,1.23c-1.15,0-2.05-0.57-2.71-1.71
			c-0.66-1.14-0.99-2.71-0.99-4.71V7.55c0-1.27,0.15-2.4,0.45-3.37c0.3-0.97,0.74-1.71,1.3-2.23c0.56-0.52,1.22-0.78,1.96-0.78
			c1.03,0,1.86,0.41,2.49,1.23s1,1.97,1.09,3.45h-1.84C13.5,5,13.34,4.38,13.06,3.99c-0.28-0.39-0.7-0.58-1.26-0.58
			c-0.61,0-1.08,0.33-1.38,0.98c-0.3,0.65-0.46,1.66-0.47,3.03v1c0,1.43,0.15,2.48,0.44,3.14c0.29,0.66,0.76,0.99,1.39,0.99
			c0.57,0,1-0.19,1.27-0.58c0.28-0.39,0.44-0.98,0.48-1.79H15.38z"/>
	</g>
	<g>
		<path class="st3" d="M4.63,1.85h1.84v9.17c0,0.84-0.13,1.59-0.38,2.23c-0.25,0.65-0.61,1.14-1.07,1.5
			c-0.46,0.35-0.98,0.53-1.55,0.53c-0.95,0-1.68-0.36-2.21-1.07c-0.53-0.71-0.79-1.72-0.79-3.03h1.86c0,0.65,0.09,1.13,0.28,1.44
			s0.48,0.46,0.87,0.46c0.35,0,0.63-0.18,0.84-0.54c0.21-0.36,0.31-0.87,0.31-1.53V1.85z"/>
		<path class="st3" d="M15.07,10.69C15,12.11,14.65,13.23,14,14.05c-0.64,0.82-1.49,1.23-2.53,1.23c-1.15,0-2.05-0.57-2.71-1.71
			c-0.66-1.14-0.99-2.71-0.99-4.71V8.05c0-1.27,0.15-2.4,0.45-3.37s0.74-1.71,1.3-2.23c0.56-0.52,1.22-0.78,1.96-0.78
			c1.03,0,1.86,0.41,2.49,1.23c0.63,0.82,1,1.97,1.09,3.45h-1.84c-0.05-0.86-0.21-1.48-0.48-1.86c-0.28-0.39-0.7-0.58-1.26-0.58
			c-0.61,0-1.08,0.33-1.38,0.98c-0.3,0.65-0.46,1.66-0.47,3.03v1c0,1.43,0.15,2.48,0.44,3.14c0.29,0.66,0.76,0.99,1.39,0.99
			c0.57,0,1-0.19,1.27-0.58c0.28-0.39,0.44-0.98,0.48-1.79H15.07z"/>
	</g>
	<g>
		<path class="st4" d="M4.32,2.35h1.84v9.17c0,0.84-0.13,1.59-0.38,2.23c-0.25,0.65-0.61,1.14-1.07,1.5
			c-0.46,0.35-0.98,0.53-1.55,0.53c-0.95,0-1.68-0.36-2.21-1.07c-0.53-0.71-0.79-1.72-0.79-3.03h1.86c0,0.65,0.09,1.13,0.28,1.44
			c0.18,0.31,0.48,0.46,0.87,0.46c0.35,0,0.63-0.18,0.84-0.54c0.21-0.36,0.31-0.87,0.31-1.53V2.35z"/>
		<path class="st4" d="M14.76,11.18c-0.07,1.42-0.42,2.55-1.07,3.37c-0.64,0.82-1.49,1.23-2.53,1.23c-1.15,0-2.05-0.57-2.71-1.71
			c-0.66-1.14-0.99-2.71-0.99-4.71V8.54c0-1.27,0.15-2.4,0.45-3.37s0.74-1.71,1.3-2.23c0.56-0.52,1.22-0.78,1.96-0.78
			c1.03,0,1.86,0.41,2.49,1.23s1,1.97,1.09,3.45h-1.84c-0.05-0.86-0.21-1.48-0.48-1.86c-0.28-0.39-0.7-0.58-1.26-0.58
			c-0.61,0-1.08,0.33-1.38,0.98S9.35,7.04,9.34,8.41v1c0,1.43,0.15,2.48,0.44,3.14c0.29,0.66,0.76,0.99,1.39,0.99
			c0.57,0,1-0.19,1.27-0.58c0.28-0.39,0.44-0.98,0.48-1.79H14.76z"/>
	</g>
</g>
</svg>
